<?xml version="1.0" encoding="UTF-8" standalone="no"?><!DOCTYPE svg PUBLIC "-//W3C//DTD SVG 1.1//EN" "http://www.w3.org/Graphics/SVG/1.1/DTD/svg11.dtd"><svg width="100%" height="100%" viewBox="0 0 3287 3287" version="1.1" xmlns="http://www.w3.org/2000/svg" xmlns:xlink="http://www.w3.org/1999/xlink" xml:space="preserve" xmlns:serif="http://www.serif.com/" style="fill-rule:evenodd;clip-rule:evenodd;stroke-linejoin:round;stroke-miterlimit:2;"><g><path d="M3073.822,854.291l0,1479.687c0,408.331 -331.513,739.844 -739.844,739.844l-1479.687,0c-408.331,0 -739.844,-331.513 -739.844,-739.844l0,-1479.687c0,-408.331 331.513,-739.844 739.844,-739.844l1479.687,0c408.331,0 739.844,331.513 739.844,739.844Z" style="fill:#d7d7d7;"/></g><path d="M3073.822,854.291l0,1479.687c0,408.331 -331.513,739.844 -739.844,739.844l-1479.687,0c-408.331,0 -739.844,-331.513 -739.844,-739.844l0,-1479.687c0,-408.331 331.513,-739.844 739.844,-739.844l1479.687,0c408.331,0 739.844,331.513 739.844,739.844Z" style="fill:#d7d7d7;"/><path d="M530.072,1226.751l181.25,-212.303l-181.25,-212.303l369.955,0l0,-153.322l373.795,365.625l-373.795,365.625l0,-153.322l-369.955,0Z" style="fill:#380078;fill-opacity:0.54;"/><path d="M1214.447,1226.751l181.25,-212.303l-181.25,-212.303l369.955,0l0,-153.322l373.795,365.625l-373.795,365.625l0,-153.322l-369.955,0Z" style="fill:#784100;fill-opacity:0.54;"/><path d="M1908.197,1226.751l181.25,-212.303l-181.25,-212.303l369.955,0l0,-153.322l373.795,365.625l-373.795,365.625l0,-153.322l-369.955,0Z" style="fill:#00782a;fill-opacity:0.54;"/><path d="M1160.527,1676.769c60.071,47.665 70.144,135.133 22.479,195.204l-454.896,573.299c-47.665,60.071 -135.133,70.144 -195.204,22.479c-60.071,-47.665 -70.144,-135.133 -22.479,-195.204l454.896,-573.299c47.665,-60.071 135.133,-70.144 195.204,-22.479Z" style="fill:#380078;fill-opacity:0.54;"/><path d="M1877.714,1676.769c60.071,47.665 70.144,135.133 22.479,195.204l-454.896,573.299c-47.665,60.071 -135.133,70.144 -195.204,22.479c-60.071,-47.665 -70.144,-135.133 -22.479,-195.204l454.896,-573.299c47.665,-60.071 135.133,-70.144 195.204,-22.479Z" style="fill:#784100;fill-opacity:0.54;"/><path d="M2594.902,1676.769c60.071,47.665 70.144,135.133 22.479,195.204l-454.896,573.299c-47.665,60.071 -135.133,70.144 -195.204,22.479c-60.071,-47.665 -70.144,-135.133 -22.479,-195.204l454.896,-573.299c47.665,-60.071 135.133,-70.144 195.204,-22.479Z" style="fill:#00782a;fill-opacity:0.54;"/></svg>